<svg xmlns="http://www.w3.org/2000/svg" viewBox="0 0 1200 675" role="img" aria-labelledby="title desc">
  <title id="title">E-commerce operations preview</title>
  <desc id="desc">Monochrome dashboard preview for e-commerce and app operations.</desc>
  <rect width="1200" height="675" fill="#efeff0"/>
  <rect x="82" y="70" width="1036" height="535" rx="8" fill="#ffffff" stroke="#0b0b0c" stroke-width="3"/>
  <rect x="82" y="70" width="220" height="535" rx="8" fill="#0b0b0c"/>
  <rect x="126" y="126" width="122" height="22" rx="5" fill="#ffffff"/>
  <rect x="126" y="204" width="126" height="16" rx="4" fill="#9a9ca1"/>
  <rect x="126" y="252" width="104" height="16" rx="4" fill="#9a9ca1"/>
  <rect x="126" y="300" width="132" height="16" rx="4" fill="#9a9ca1"/>
  <rect x="350" y="122" width="686" height="52" rx="8" fill="#0b0b0c"/>
  <rect x="350" y="224" width="190" height="140" rx="8" fill="#171719"/>
  <rect x="574" y="224" width="190" height="140" rx="8" fill="#2b2c2f"/>
  <rect x="798" y="224" width="238" height="140" rx="8" fill="#171719"/>
  <rect x="350" y="414" width="686" height="96" rx="8" fill="#f8f8f7" stroke="#d7d7d9" stroke-width="2"/>
  <rect x="382" y="448" width="232" height="16" rx="4" fill="#0b0b0c"/>
  <rect x="382" y="482" width="506" height="14" rx="4" fill="#8b8d93"/>
  <path d="M390 328h110M614 328h110M838 328h152" stroke="#ffffff" stroke-width="16" stroke-linecap="round"/>
  <circle cx="398" cy="270" r="18" fill="#ffffff"/>
  <circle cx="622" cy="270" r="18" fill="#ffffff"/>
  <circle cx="846" cy="270" r="18" fill="#ffffff"/>
</svg>
