<svg xmlns="http://www.w3.org/2000/svg" viewBox="0 0 1200 675" role="img" aria-labelledby="title desc">
  <title id="title">GitHub profile search project preview</title>
  <desc id="desc">Monochrome interface preview for a GitHub profile search app.</desc>
  <rect width="1200" height="675" fill="#eeeeef"/>
  <rect x="92" y="78" width="1016" height="520" rx="8" fill="#ffffff" stroke="#0b0b0c" stroke-width="3"/>
  <rect x="132" y="120" width="936" height="74" rx="8" fill="#0b0b0c"/>
  <rect x="166" y="144" width="360" height="25" rx="5" fill="#ffffff"/>
  <rect x="920" y="136" width="100" height="40" rx="8" fill="#ffffff"/>
  <circle cx="244" cy="336" r="88" fill="#0b0b0c"/>
  <rect x="382" y="266" width="290" height="28" rx="5" fill="#0b0b0c"/>
  <rect x="382" y="314" width="430" height="18" rx="4" fill="#75777d"/>
  <rect x="382" y="354" width="368" height="18" rx="4" fill="#a5a6aa"/>
  <rect x="132" y="484" width="246" height="62" rx="8" fill="#171719"/>
  <rect x="420" y="484" width="246" height="62" rx="8" fill="#2b2c2f"/>
  <rect x="708" y="484" width="246" height="62" rx="8" fill="#171719"/>
  <circle cx="244" cy="318" r="35" fill="#ffffff"/>
  <path d="M183 390c28-53 95-53 122 0" fill="none" stroke="#ffffff" stroke-width="28" stroke-linecap="round"/>
</svg>
